<svg width="100" height="100" viewBox="0 0 100 100" fill="none" xmlns="http://www.w3.org/2000/svg">
  <path d="M9.74609 9.08984H12.9688L49.5898 49.2266L86.1523 9.08984H89.6094L96.6406 92H86.0352L80.7031 29.5977L49.707 63.9336H48.5352L18.4766 30.125L13.7891 92H3.30078L9.74609 9.08984Z"/>
  <path d="M9.74609 9.08984V7.08984C8.70164 7.08984 7.83306 7.89353 7.75211 8.93483L9.74609 9.08984ZM12.9688 9.08984L14.4462 7.74182C14.0672 7.32649 13.531 7.08984 12.9688 7.08984V9.08984ZM49.5898 49.2266L48.1124 50.5746C48.4915 50.9901 49.0281 51.2268 49.5906 51.2266C50.1531 51.2263 50.6896 50.9892 51.0684 50.5734L49.5898 49.2266ZM86.1523 9.08984V7.08984C85.5896 7.08984 85.0528 7.32695 84.6738 7.74299L86.1523 9.08984ZM89.6094 9.08984L91.6022 8.92084C91.5144 7.8855 90.6484 7.08984 89.6094 7.08984V9.08984ZM96.6406 92V94C97.2004 94 97.7346 93.7654 98.1134 93.3531C98.4921 92.9409 98.6808 92.3888 98.6335 91.831L96.6406 92ZM86.0352 92L84.0424 92.1703C84.1308 93.2051 84.9966 94 86.0352 94V92ZM80.7031 29.5977L82.6959 29.4274C82.6281 28.6338 82.0958 27.956 81.3409 27.7021C80.5859 27.4481 79.7523 27.6663 79.2186 28.2575L80.7031 29.5977ZM49.707 63.9336V65.9336C50.273 65.9336 50.8124 65.6938 51.1916 65.2738L49.707 63.9336ZM48.5352 63.9336L47.0405 65.2625C47.42 65.6894 47.964 65.9336 48.5352 65.9336V63.9336ZM18.4766 30.125L19.9712 28.7961C19.4379 28.1962 18.5975 27.9733 17.8369 28.2301C17.0763 28.4868 16.5429 29.1735 16.4823 29.9739L18.4766 30.125ZM13.7891 92V94C14.835 94 15.7043 93.1941 15.7833 92.1511L13.7891 92ZM3.30078 92L1.3068 91.845C1.2636 92.4007 1.45425 92.9492 1.83279 93.3583C2.21133 93.7674 2.74341 94 3.30078 94V92ZM9.74609 11.0898H12.9688V7.08984H9.74609V11.0898ZM11.4913 10.4379L48.1124 50.5746L51.0673 47.8785L14.4462 7.74182L11.4913 10.4379ZM51.0684 50.5734L87.6309 10.4367L84.6738 7.74299L48.1113 47.8797L51.0684 50.5734ZM86.1523 11.0898H89.6094V7.08984H86.1523V11.0898ZM87.6165 9.25885L94.6478 92.169L98.6335 91.831L91.6022 8.92084L87.6165 9.25885ZM96.6406 90H86.0352V94H96.6406V90ZM88.0279 91.8297L82.6959 29.4274L78.7104 29.7679L84.0424 92.1703L88.0279 91.8297ZM79.2186 28.2575L48.2225 62.5934L51.1916 65.2738L82.1877 30.9378L79.2186 28.2575ZM49.707 61.9336H48.5352V65.9336H49.707V61.9336ZM50.0298 62.6047L19.9712 28.7961L16.9819 31.4539L47.0405 65.2625L50.0298 62.6047ZM16.4823 29.9739L11.7948 91.8489L15.7833 92.1511L20.4708 30.2761L16.4823 29.9739ZM13.7891 90H3.30078V94H13.7891V90ZM5.29477 92.155L11.7401 9.24485L7.75211 8.93483L1.3068 91.845L5.29477 92.155Z"/>
  <style>
    path { fill: #223A48; }
    @media (prefers-color-scheme: dark) {
      path { fill: white; }
    }
  </style>
</svg>
