<svg width="400" height="400" viewBox="0 0 400 400" fill="none" xmlns="http://www.w3.org/2000/svg">
<path d="M325.447 333.188C328.31 330.291 329.836 327.25 329.836 324.116C329.836 304.17 268.088 288 191.918 288C115.748 288 54 304.168 54 324.115C54 327.248 55.524 330.289 58.389 333.185C73.755 317.629 127.712 306.139 191.918 306.139C256.125 306.141 310.082 317.631 325.447 333.188Z" fill="#C0C0C0"/>
<path d="M325.447 333.188C310.082 317.631 256.125 306.141 191.918 306.141C127.712 306.141 73.755 317.631 58.389 333.188C73.755 348.745 127.712 360.233 191.918 360.233C256.125 360.233 310.082 348.742 325.447 333.188Z" fill="#333333"/>
<mask id="mask0_418_27" style="mask-type:alpha" maskUnits="userSpaceOnUse" x="54" y="44" width="276" height="317">
<path d="M325.447 333.188C328.31 330.291 329.836 327.25 329.836 324.116C329.836 304.17 268.088 288 191.918 288C115.748 288 54 304.168 54 324.115C54 327.248 55.524 330.289 58.389 333.185C73.755 317.629 127.712 306.139 191.918 306.139C256.125 306.141 310.082 317.631 325.447 333.188Z" fill="#333333"/>
<path d="M325.447 333.188C310.082 317.631 256.125 306.141 191.918 306.141C127.712 306.141 73.755 317.631 58.389 333.188C73.755 348.745 127.712 360.233 191.918 360.233C256.125 360.233 310.082 348.742 325.447 333.188Z" fill="#333333"/>
<path d="M76 44H315V333H76V44Z" fill="#333333"/>
</mask>
<g mask="url(#mask0_418_27)">
<path d="M230.669 338.708C229.68 334.552 228.606 329.974 227.462 325.044C227.037 323.213 226.604 321.339 226.16 319.413C225.203 320.874 223.737 322.839 221.765 324.752C218.295 328.119 213.253 331.323 206.623 331.323C206.175 331.323 205.72 331.309 205.259 331.28C199.854 330.926 194.08 330.112 188.085 328.858C187.877 335.585 187.803 344.487 188.534 350.338C189.406 357.317 191.819 390.327 192.459 398.42C194.741 398.449 197.036 398.466 199.347 398.466C214.223 398.466 231.235 397.85 244.659 396.708C241.903 386.796 233.523 350.694 230.669 338.708Z" fill="#F6AF74" stroke="#F6B075" stroke-width="2" stroke-miterlimit="10"/>
<path d="M231.977 338.397C231.014 334.354 229.97 329.907 228.861 325.126C228.31 322.755 227.746 320.305 227.164 317.773L227.166 317.769L227.106 317.511C224.635 306.754 222.799 298.533 222.799 298.532L222.597 297.628L187.22 318.439L187.197 318.795C187.195 318.834 186.944 322.767 186.768 328.011L186.749 328.573L186.753 328.574C186.537 335.374 186.453 344.494 187.204 350.504C188.067 357.425 190.474 390.314 191.111 398.4C191.338 398.404 191.561 398.409 191.788 398.412C192.013 398.415 192.236 398.418 192.462 398.421C191.822 390.327 189.409 357.318 188.537 350.339C187.807 344.486 187.88 335.584 188.089 328.86C188.629 328.973 189.155 329.063 189.692 329.169C190.582 329.344 191.472 329.524 192.35 329.681C192.916 329.783 193.471 329.863 194.034 329.954C194.963 330.106 195.893 330.265 196.808 330.393C197.256 330.455 197.691 330.5 198.136 330.559C199.143 330.69 200.153 330.826 201.141 330.928C201.176 330.932 201.209 330.934 201.245 330.938C202.602 331.079 203.946 331.198 205.264 331.284C205.724 331.313 206.179 331.329 206.627 331.329C206.628 331.329 206.627 331.329 206.628 331.329C207.447 331.329 208.239 331.274 209.011 331.183C209.047 331.179 209.082 331.173 209.118 331.168C209.459 331.125 209.795 331.075 210.126 331.017C210.183 331.006 210.237 330.996 210.295 330.986C210.607 330.926 210.913 330.863 211.216 330.791C211.277 330.777 211.335 330.763 211.395 330.748C211.699 330.673 211.999 330.592 212.292 330.504C212.341 330.488 212.39 330.477 212.438 330.461C212.753 330.363 213.065 330.261 213.372 330.15C213.393 330.142 213.417 330.133 213.438 330.127C219.921 327.764 224.159 322.481 226.165 319.417C226.607 321.341 227.042 323.215 227.467 325.046C228.611 329.977 229.686 334.555 230.674 338.71C233.528 350.695 241.906 386.799 244.664 396.711C244.891 396.691 245.118 396.672 245.345 396.654C245.573 396.633 245.799 396.613 246.028 396.592C243.272 386.707 234.849 350.461 231.977 338.397Z" fill="#EEA36C"/>
<path d="M198.236 71.3398C198 66.2318 194.2 62.2568 189.752 62.4648L184.718 62.6978C180.27 62.9068 176.857 67.2168 177.095 72.3258L177.581 82.4788L198.7 80.9968L198.236 71.3398Z" fill="#BA5B3C"/>
<path d="M298.82 73.9598L198.698 80.9968L177.578 82.4789L76.2811 89.5988L82.2621 199.745L182.865 192.812L203.987 191.356L309.045 184.116L298.82 73.9598Z" fill="white"/>
<path d="M228.411 262.399C226.394 256.128 221.69 244.254 217.212 237.759C212.732 231.264 210.492 212.673 206.667 208.416C206.041 207.721 205.388 207.255 204.733 206.958L206.567 245.241L211.384 245.097C215.835 244.966 219.548 248.384 219.677 252.73L219.761 255.572C219.889 259.92 216.385 263.55 211.934 263.681L207.456 263.812L207.498 264.687L216.955 264.409C221.86 264.263 225.954 268.002 226.095 272.759L226.187 275.868C226.329 280.626 222.463 284.597 217.556 284.743L208.472 285.014L208.525 286.106L212.941 285.975C217.201 285.848 220.756 289.272 220.884 293.619L220.968 296.46C221.097 300.808 217.748 304.433 213.489 304.56L209.415 304.681L209.456 305.556L211.268 305.501C215.038 305.39 218.165 307.829 218.257 310.948L218.318 312.987C218.411 316.106 215.43 318.727 211.664 318.838L210.096 318.884L188.935 319.509L177.174 319.859C176.378 319.881 175.612 319.786 174.897 319.599C174.897 319.599 180.837 321.396 189.093 322.796C192.72 323.411 196.791 323.95 201.006 324.226C204.464 324.454 207.556 323.779 210.272 322.564C218.404 318.925 223.153 310.435 224.178 306.726C225.545 301.775 223.483 297.339 223.483 297.339C223.483 297.339 226.619 285.693 228.411 280.093C230.203 274.493 230.427 268.67 228.411 262.399Z" fill="#F6AF74"/>
<path d="M229.051 262.192C227.006 255.831 222.314 243.973 217.765 237.378C215.579 234.209 213.921 227.993 212.318 221.982C210.705 215.927 209.177 210.207 207.169 207.97C206.426 207.144 205.599 206.562 204.7 206.22L204.735 206.96L204.772 207.737C205.266 208.01 205.734 208.383 206.168 208.867C207.962 210.864 209.517 216.692 211.02 222.327C212.654 228.448 214.341 234.78 216.661 238.139C221.096 244.569 225.831 256.557 227.773 262.602C229.637 268.405 229.637 274.059 227.773 279.887C225.997 285.438 222.869 297.046 222.835 297.163L222.773 297.398L222.876 297.62C222.896 297.662 224.814 301.904 223.534 306.544C222.232 311.247 214.418 324.426 201.054 323.553C191.628 322.938 182.834 320.977 178.3 319.823L177.178 319.856C176.382 319.878 175.617 319.784 174.901 319.596C174.681 319.538 174.467 319.468 174.257 319.395L174.111 320.059L174.707 320.239C174.83 320.278 187.238 323.997 200.967 324.895C201.429 324.924 201.882 324.94 202.331 324.94C215.694 324.94 223.5 311.717 224.83 306.903C226.084 302.364 224.612 298.295 224.196 297.287C224.642 295.638 227.425 285.39 229.053 280.296C231.004 274.192 231.004 268.271 229.051 262.192Z" fill="#EEA36C"/>
<path d="M204.772 207.737L204.735 206.96L204.698 206.22L203.987 191.356L182.865 192.812L185.407 245.867L190.241 245.726L190.93 245.704L191.617 245.685L206.569 245.243L204.772 207.737Z" fill="#BA5B3C"/>
<path d="M182.253 285.79L182.944 285.769L200.065 285.263L208.472 285.015L217.556 284.747C222.463 284.602 226.327 280.629 226.187 275.872L226.095 272.763C225.954 268.005 221.862 264.267 216.955 264.411L187.398 265.286L186.708 265.306L186.338 265.318L186.016 265.329L176.547 265.607L176.522 264.732L186.21 264.447L186.299 264.443L186.903 264.425L187.594 264.405L207.459 263.817L211.937 263.684C216.388 263.553 219.893 259.921 219.763 255.577L219.679 252.735C219.551 248.387 215.838 244.971 211.387 245.102L206.57 245.245L191.62 245.686L190.932 245.706L190.244 245.727L185.411 245.87L170.64 246.306C166.188 246.437 162.684 250.07 162.813 254.415L162.897 257.257C163.016 261.288 166.22 264.515 170.236 264.859L170.269 265.964C166.237 266.882 163.287 270.446 163.41 274.612L163.503 277.723C163.625 281.889 166.819 286.585 170.899 287.264L170.918 287.868C168.222 289.159 166.391 291.993 166.484 295.225L166.568 298.067C166.697 302.415 170.254 305.837 174.511 305.712L175.476 305.683L175.505 306.662C172.363 307.252 170.046 309.614 170.128 312.371L170.188 314.41C170.255 316.668 171.917 318.561 174.256 319.395C174.465 319.469 174.679 319.541 174.9 319.598C175.617 319.785 176.38 319.88 177.177 319.858L178.298 319.826L211.666 318.839C215.434 318.73 218.414 316.109 218.321 312.987L218.26 310.948C218.167 307.83 215.038 305.389 211.271 305.502L182.048 306.364L182.022 305.489L213.493 304.559C217.752 304.434 221.098 300.807 220.971 296.459L220.887 293.618C220.76 289.271 217.203 285.849 212.945 285.974L182.709 286.867L182.017 286.888L181.325 286.909L177.185 287.031L177.153 285.939L181.564 285.808L182.253 285.79Z" fill="#F6AF74"/>
<path d="M176.927 320.534C172.871 320.534 169.615 317.852 169.514 314.43L169.454 312.391C169.376 309.766 171.222 307.405 173.994 306.382C169.561 306.231 166.028 302.643 165.893 298.087L165.809 295.245C165.718 292.152 167.27 289.281 169.825 287.699C165.738 286.437 162.945 281.736 162.828 277.742L162.734 274.632C162.61 270.419 165.452 266.647 169.561 265.452C165.457 264.814 162.343 261.398 162.222 257.273L162.138 254.431C161.998 249.72 165.802 245.773 170.617 245.63L211.365 244.427C216.24 244.277 220.209 247.976 220.348 252.712L220.432 255.554C220.499 257.837 219.653 260.011 218.047 261.675C217.127 262.628 216.021 263.347 214.805 263.8L216.935 263.736C222.27 263.59 226.615 267.593 226.766 272.74L226.858 275.849C226.931 278.331 226.004 280.697 224.247 282.503C222.494 284.306 220.125 285.339 217.576 285.415L214.97 285.491C218.668 286.303 221.438 289.573 221.557 293.596L221.641 296.438C221.709 298.717 220.902 300.885 219.37 302.544C217.961 304.068 216.094 304.997 214.063 305.191C216.858 306.041 218.852 308.255 218.931 310.921L218.993 312.96C219.043 314.673 218.294 316.298 216.884 317.538C215.51 318.746 213.663 319.444 211.685 319.502L177.195 320.523C177.105 320.532 177.017 320.534 176.927 320.534ZM176.126 304.991L176.19 307.217L175.627 307.321C172.758 307.86 170.728 309.975 170.797 312.35L170.858 314.389C170.939 317.143 173.731 319.307 177.155 319.186L211.646 318.165C213.311 318.116 214.857 317.536 215.999 316.534C217.103 315.564 217.689 314.31 217.65 313.005L217.589 310.967C217.51 308.276 214.843 306.167 211.519 306.167L211.291 306.171L181.395 307.055L181.331 304.835L213.472 303.887C215.349 303.831 217.094 303.033 218.382 301.635C219.675 300.237 220.356 298.405 220.298 296.479L220.214 293.637C220.099 289.714 217.005 286.643 213.17 286.643L212.963 286.647L176.529 287.723L176.458 285.286L217.538 284.07C219.735 284.007 221.776 283.118 223.285 281.566C224.786 280.021 225.579 278.004 225.515 275.886L225.423 272.777C225.293 268.377 221.576 264.945 216.976 265.081L175.895 266.294L175.831 264.077L211.915 263.01C213.892 262.952 215.727 262.147 217.082 260.741C218.434 259.341 219.145 257.512 219.09 255.594L219.006 252.751C218.889 248.762 215.542 245.626 211.403 245.772L170.656 246.975C166.583 247.096 163.363 250.422 163.48 254.393L163.564 257.235C163.671 260.88 166.563 263.868 170.291 264.186L170.888 264.237L170.955 266.495L170.416 266.618C166.633 267.477 163.968 270.833 164.078 274.593L164.171 277.702C164.278 281.391 167.112 285.954 171.006 286.6L171.551 286.69L171.597 288.285L171.203 288.473C168.658 289.69 167.067 292.332 167.151 295.204L167.235 298.046C167.351 301.969 170.446 305.04 174.281 305.04L176.126 304.991Z" fill="#EEA36C"/>
<path d="M153.269 127.289C153.636 133.188 152.432 137.921 149.66 141.485C146.887 145.048 142.843 146.996 137.531 147.326C132.101 147.664 127.809 146.264 124.653 143.128C121.498 139.991 119.73 135.398 119.354 129.345C118.981 123.345 120.17 118.601 122.924 115.115C125.677 111.629 129.777 109.716 135.223 109.378C140.518 109.048 144.757 110.473 147.942 113.649C151.125 116.826 152.902 121.372 153.269 127.289ZM123.895 129.114C124.207 134.106 125.504 137.826 127.791 140.274C130.078 142.723 133.247 143.821 137.297 143.569C141.382 143.315 144.387 141.837 146.312 139.135C148.236 136.434 149.043 132.578 148.732 127.569C148.423 122.61 147.151 118.915 144.918 116.479C142.683 114.045 139.53 112.954 135.464 113.208C131.379 113.462 128.353 114.944 126.388 117.657C124.418 120.371 123.589 124.188 123.895 129.114Z" fill="black"/>
<path d="M164.223 117.42L165.337 135.349C165.477 137.601 166.094 139.249 167.189 140.295C168.284 141.34 169.922 141.795 172.108 141.66C175 141.479 177.064 140.559 178.302 138.895C179.54 137.233 180.047 134.61 179.825 131.03L178.923 116.507L183.109 116.247L184.827 143.881L181.374 144.095L180.538 140.427L180.31 140.441C179.539 141.857 178.414 142.972 176.937 143.79C175.46 144.608 173.749 145.077 171.797 145.197C168.436 145.406 165.869 144.765 164.098 143.271C162.327 141.779 161.33 139.277 161.113 135.763L159.989 117.685L164.223 117.42Z" fill="black"/>
<path d="M206.591 143.034C204.792 143.145 203.128 142.916 201.6 142.345C200.072 141.773 198.759 140.83 197.665 139.515L197.361 139.533C197.664 141.134 197.859 142.658 197.95 144.103L198.657 155.474L194.47 155.734L191.982 115.695L195.385 115.484L196.2 119.23L196.4 119.217C197.381 117.638 198.566 116.467 199.955 115.706C201.342 114.944 202.96 114.506 204.809 114.392C208.475 114.165 211.379 115.242 213.528 117.622C215.674 120.003 216.889 123.454 217.173 127.976C217.453 132.515 216.66 136.103 214.791 138.743C212.921 141.379 210.189 142.812 206.591 143.034ZM204.427 117.983C201.603 118.159 199.609 119.067 198.446 120.71C197.284 122.353 196.791 124.879 196.968 128.293L197.027 129.228C197.267 133.111 198.089 135.849 199.486 137.441C200.884 139.033 203.012 139.738 205.871 139.562C208.258 139.414 210.067 138.331 211.301 136.314C212.532 134.296 213.044 131.59 212.835 128.195C212.619 124.749 211.778 122.146 210.313 120.39C208.842 118.634 206.881 117.832 204.427 117.983Z" fill="black"/>
<path d="M242.701 132.716C242.859 135.288 242.025 137.33 240.196 138.845C238.367 140.361 235.719 141.224 232.258 141.439C228.593 141.668 225.699 141.265 223.577 140.232L223.335 136.349C224.704 136.939 226.163 137.38 227.709 137.672C229.253 137.965 230.73 138.066 232.146 137.978C234.332 137.842 235.989 137.39 237.123 136.619C238.258 135.849 238.778 134.748 238.689 133.32C238.623 132.244 238.098 131.353 237.12 130.646C236.139 129.939 234.264 129.148 231.49 128.275C228.86 127.476 226.979 126.754 225.85 126.107C224.721 125.46 223.867 124.699 223.279 123.824C222.693 122.949 222.361 121.882 222.284 120.621C222.143 118.369 222.95 116.533 224.701 115.117C226.452 113.701 228.926 112.892 232.118 112.695C235.094 112.509 238.039 112.933 240.955 113.967L239.68 117.463C236.834 116.493 234.287 116.077 232.034 116.217C230.05 116.341 228.574 116.744 227.602 117.429C226.633 118.113 226.182 119.002 226.248 120.095C226.294 120.834 226.521 121.452 226.934 121.949C227.345 122.447 227.984 122.906 228.854 123.324C229.725 123.743 231.379 124.322 233.824 125.066C237.176 126.056 239.467 127.119 240.691 128.257C241.917 129.396 242.587 130.884 242.701 132.716Z" fill="black"/>
<path d="M262.618 136.362C262.475 134.077 263.415 132.871 265.431 132.746C266.407 132.684 267.176 132.933 267.743 133.487C268.307 134.044 268.624 134.876 268.694 135.985C268.761 137.061 268.545 137.914 268.044 138.545C267.543 139.176 266.815 139.521 265.856 139.58C264.982 139.636 264.245 139.414 263.638 138.92C263.035 138.425 262.695 137.573 262.618 136.362ZM266.54 128.603L263.894 128.767L260.947 102.146L266.169 101.822L266.54 128.603Z" fill="black"/>
<path d="M159.215 169.954L159.146 168.576L153.809 168.844L153.602 164.736L159.747 164.427L159.677 163.04L151.909 163.43L152.551 176.211L160.398 175.817L160.329 174.439L154.106 174.751L153.878 170.222L159.215 169.954ZM167.577 165.758C166.887 165.793 166.277 165.976 165.748 166.308C165.224 166.633 164.783 167.066 164.423 167.606L164.402 167.37L164.268 166.101L162.723 166.178L163.2 175.676L164.833 175.594L164.527 169.502C164.617 169.204 164.736 168.934 164.882 168.692C165.034 168.444 165.214 168.233 165.422 168.058C165.653 167.858 165.927 167.704 166.244 167.594C166.561 167.478 166.918 167.411 167.316 167.391C167.626 167.375 167.922 167.378 168.205 167.399C168.493 167.414 168.797 167.448 169.117 167.503L169.256 165.903C169.089 165.841 168.84 165.798 168.511 165.773C168.187 165.748 167.876 165.743 167.577 165.758ZM176.936 165.288C176.245 165.323 175.636 165.506 175.107 165.838C174.583 166.163 174.141 166.596 173.781 167.136L173.761 166.9L173.627 165.63L172.082 165.708L172.559 175.206L174.192 175.124L173.885 169.032C173.976 168.734 174.095 168.464 174.241 168.222C174.393 167.974 174.573 167.762 174.781 167.588C175.011 167.388 175.285 167.234 175.602 167.124C175.919 167.008 176.277 166.94 176.675 166.92C176.985 166.905 177.281 166.908 177.564 166.929C177.852 166.943 178.156 166.978 178.475 167.032L178.615 165.433C178.448 165.371 178.199 165.327 177.869 165.303C177.545 165.278 177.234 165.273 176.936 165.288ZM179.858 169.99L179.867 170.183C179.902 170.868 180.033 171.498 180.261 172.073C180.49 172.648 180.802 173.143 181.198 173.557C181.589 173.972 182.056 174.289 182.601 174.508C183.152 174.726 183.764 174.819 184.437 174.785C185.104 174.752 185.698 174.599 186.218 174.326C186.738 174.053 187.174 173.691 187.527 173.239C187.874 172.788 188.132 172.264 188.302 171.669C188.472 171.074 188.539 170.434 188.505 169.749L188.495 169.556C188.461 168.872 188.329 168.242 188.101 167.666C187.872 167.085 187.563 166.588 187.172 166.173C186.776 165.759 186.302 165.442 185.752 165.224C185.207 164.999 184.597 164.903 183.925 164.937C183.257 164.971 182.664 165.126 182.144 165.405C181.624 165.677 181.19 166.039 180.843 166.491C180.491 166.943 180.23 167.469 180.06 168.07C179.891 168.666 179.823 169.306 179.858 169.99ZM181.491 170.102L181.481 169.909C181.458 169.446 181.492 169.002 181.582 168.575C181.671 168.142 181.822 167.759 182.034 167.426C182.241 167.093 182.506 166.824 182.83 166.62C183.154 166.41 183.541 166.294 183.992 166.271C184.442 166.249 184.839 166.326 185.182 166.502C185.531 166.672 185.828 166.912 186.072 167.223C186.311 167.533 186.496 167.9 186.629 168.321C186.767 168.737 186.848 169.176 186.871 169.638L186.881 169.831C186.904 170.299 186.871 170.75 186.782 171.182C186.691 171.609 186.543 171.989 186.337 172.322C186.125 172.656 185.854 172.924 185.524 173.129C185.2 173.333 184.815 173.446 184.371 173.468C183.92 173.491 183.52 173.417 183.172 173.247C182.823 173.077 182.529 172.836 182.291 172.526C182.046 172.215 181.858 171.852 181.725 171.436C181.593 171.015 181.515 170.57 181.491 170.102ZM195.653 164.348C194.963 164.382 194.353 164.566 193.824 164.897C193.301 165.223 192.859 165.656 192.499 166.196L192.478 165.959L192.344 164.69L190.799 164.768L191.276 174.265L192.909 174.183L192.603 168.091C192.694 167.794 192.812 167.524 192.958 167.282C193.11 167.033 193.29 166.822 193.498 166.647C193.729 166.448 194.003 166.293 194.32 166.184C194.637 166.068 194.994 166 195.392 165.98C195.702 165.965 195.999 165.967 196.281 165.988C196.57 166.003 196.873 166.038 197.193 166.092L197.333 164.492C197.165 164.43 196.917 164.387 196.587 164.362C196.263 164.338 195.952 164.333 195.653 164.348ZM215.001 168.77L214.575 160.282L212.845 160.369L207.567 169.513L207.615 170.47L213.444 170.177L213.593 173.144L215.217 173.063L215.068 170.096L216.85 170.006L216.783 168.681L215.001 168.77ZM209.348 169.054L212.82 163.028L213.059 162.523L213.377 168.852L209.348 169.054ZM225.769 167.631L225.619 164.638C225.578 163.824 225.448 163.109 225.23 162.492C225.011 161.87 224.715 161.351 224.342 160.935C223.963 160.52 223.511 160.214 222.984 160.018C222.464 159.815 221.876 159.73 221.22 159.763C220.571 159.796 219.994 159.939 219.491 160.193C218.993 160.441 218.579 160.791 218.25 161.241C217.915 161.692 217.669 162.238 217.514 162.88C217.358 163.515 217.3 164.24 217.341 165.053L217.492 168.047C217.533 168.86 217.663 169.578 217.882 170.201C218.1 170.818 218.399 171.331 218.777 171.74C219.156 172.161 219.609 172.469 220.135 172.666C220.661 172.857 221.249 172.936 221.898 172.903C222.554 172.87 223.13 172.73 223.628 172.482C224.126 172.234 224.54 171.884 224.869 171.434C225.199 170.989 225.442 170.449 225.597 169.813C225.753 169.172 225.81 168.444 225.769 167.631ZM219.108 167.64C219.1 167.488 219.093 167.339 219.086 167.192C219.078 167.046 219.071 166.9 219.064 166.753L218.956 164.611C218.926 164.015 218.958 163.488 219.053 163.031C219.153 162.569 219.318 162.188 219.55 161.889C219.743 161.65 219.983 161.465 220.27 161.333C220.562 161.196 220.901 161.117 221.287 161.097C221.668 161.078 222.004 161.117 222.297 161.214C222.595 161.31 222.849 161.465 223.059 161.677C223.275 161.884 223.449 162.148 223.583 162.469C223.722 162.785 223.825 163.152 223.893 163.571L219.108 167.64ZM224.154 168.055C224.185 168.681 224.148 169.229 224.043 169.698C223.943 170.166 223.766 170.55 223.511 170.851C223.323 171.071 223.088 171.245 222.807 171.37C222.526 171.496 222.201 171.568 221.832 171.586C221.481 171.604 221.162 171.57 220.877 171.485C220.59 171.393 220.343 171.253 220.134 171.064C219.907 170.865 219.718 170.607 219.567 170.292C219.416 169.971 219.303 169.598 219.229 169.174L224.007 165.123C224.015 165.287 224.025 165.495 224.038 165.747C224.05 165.992 224.059 166.159 224.063 166.247L224.154 168.055ZM233.719 167.83L233.292 159.342L231.563 159.428L226.285 168.573L226.333 169.53L232.161 169.237L232.31 172.204L233.934 172.122L233.785 169.155L235.567 169.066L235.5 167.74L233.719 167.83ZM228.065 168.114L231.538 162.087L231.777 161.583L232.095 167.911L228.065 168.114Z" fill="#666666"/>
<path d="M186.709 265.306L187.402 265.284L187.593 264.403L186.902 264.425L186.298 264.442L186.208 264.444L186.017 265.325L186.34 265.315L186.709 265.306Z" fill="#EEA36C"/>
<path d="M182.253 285.79L181.561 285.81L181.322 286.91L182.014 286.89L182.705 286.869L182.945 285.769L182.253 285.79Z" fill="#EEA36C"/>
<path d="M210.494 327.162L210.463 326.511H210.472L210.139 319.564L188.979 320.181L189.104 322.798C189.101 322.797 189.098 322.796 189.095 322.796L189.352 328.148C189.589 333.259 193.389 337.232 197.837 337.025L202.871 336.791C207.32 336.581 210.733 332.271 210.494 327.162Z" fill="#BA5B3C"/>
</g>
</svg>
